#!OML:ASF F:\VICON\USERDATA\INSTALL\rory3\rory3.ASF
:FULLY-SPECIFIED
:DEGREES
44
root 0.8824427061290392 17.896155523536226 4.967483837162361 -1.0531546463356884 4.06542297597926 1.568550452494379
lfemur 14.153049195363977 -2.188883378789793 -25.703166033701407
ltibia 13.867457755527937
lfoot -8.938051254902678 -4.261180118315225
ltoes -8.937896859424812
rfemur -27.55390723665743 3.0858986917256557 19.168138407466817
rtibia 15.860220354674311
rfoot -6.626774625511665 -14.977895903411245
rtoes 0.0838380569154431
lowerback 10.737721540828693 -1.1011062402359335 -4.007392264255025
upperback -0.019039359303095152 -2.4024954661531375 1.6482553995229887
thorax -5.684738957611226 -0.8047752525323373 4.728638661593926
lowerneck -16.525917314473258 -2.8960945958728326 -2.6936217621096468
upperneck 21.57889887445718 -4.548405859438365 1.7269402748469957
head 9.637643338638131 -2.0686825076072077 0.44498835121935343
lclavicle 2.9486306935321123e-16 4.2892341147970576e-17
lhumerus -29.06808222994467 -0.5568242232847012 80.65603206409688
lradius 29.07761250817712
lwrist 7.263647953759949
lhand -29.50468029065478 19.801032061625733
lfingers 7.125020000000001
lthumb -2.884463637048066 49.76879624394958
rclavicle 2.9723495150705905e-16 5.3971121607121276e-17
rhumerus -36.6041045175955 -22.85604261043203 -75.10704773771806
rradius 25.50707560099267
rwrist 5.767989473673074
rhand -17.548405617766747 22.936382306530707
rfingers 7.125020000000001
rthumb 8.648720609744009 -6.748437849171455
45
root 0.8328075027475392 17.86295460200326 5.402841938228087 -1.3023881364269256 4.030854511757805 1.0775608647531145
lfemur 15.445988147055324 -2.6805332490283136 -25.063010373520452
ltibia 15.84018320822814
lfoot -8.289116444373619 -5.3061924242829495
ltoes -8.490335305586301
rfemur -27.654926321641774 1.8382403823716995 20.974306291818067
rtibia 20.25896762927923
rfoot -6.625503298247943 -12.755380576339384
rtoes -1.251157193236549
lowerback 10.710649687047528 -1.216144745810273 -3.929990342277053
upperback -0.05498661651924701 -2.3595656944571557 1.8376648652579919
thorax -5.688385871745037 -0.8849849166265964 4.8784510210915455
lowerneck -16.33019767734756 -2.914637948673519 -2.687831452219606
upperneck 21.606636180939137 -4.548067339137054 1.6824149462857998
head 9.609885645700052 -2.0935236746112484 0.47367171643682693
lclavicle 2.9486382832872266e-16 4.289347614062565e-17
lhumerus -29.63993552645862 -0.09919487746456523 80.63759798141349
lradius 29.474656277875027
lwrist 7.69662620178175
lhand -29.444991092757206 20.073539296850544
lfingers 7.125020000000001
lthumb -2.8362130373155616 50.03499298533643
rclavicle 2.972333355745103e-16 5.3970043505251877e-17
rhumerus -37.31883625336922 -24.129517098552604 -73.7297087798974
rradius 24.329012958547434
rwrist 7.2790603321342235
rhand -17.54587366545003 22.924847496200325
rfingers 7.125020000000001
rthumb 8.670415359924682 -6.803938044599263
46
root 0.782534112036414 17.871387862158095 5.847262330362914 -1.691691432889391 3.853117502824044 0.26809870494594756
lfemur 15.621649900335534 -3.471669768470436 -24.38254567463719
ltibia 19.410816877030648
lfoot -5.5689984727301 -5.804626105591975
ltoes -8.24702628631488
rfemur -27.18262150047798 1.874354033605299 22.542221863954254
rtibia 25.13577095284817
rfoot -5.1461581201659286 -10.774054432734355
rtoes -2.734990585874584
lowerback 10.7185297124705 -1.2933917129546706 -3.5291827611887303
upperback -0.08219261299236537 -2.2471637667016546 2.0523907162712156
thorax -5.7104581273726165 -0.9197534003570407 4.896784072920375
lowerneck -16.142796930268567 -2.9497278148136026 -2.695051907808976
upperneck 21.596190135573497 -4.513575837950998 1.6297168199594054
head 9.58747026379894 -2.098940587230995 0.47346697070442123
lclavicle 2.948630083454008e-16 4.289380007206144e-17
lhumerus -30.429928458120486 0.19892510207525982 80.72176784775218
lradius 29.70476375800279
lwrist 7.941573797755585
lhand -29.415526126915733 20.30381299546272
lfingers 7.125020000000001
lthumb -2.8047560975409436 50.29644426114517
rclavicle 2.9723155989333226e-16 5.396889474099397e-17
rhumerus -38.02007997614948 -25.425809362589195 -72.21356421243384
rradius 23.11376182588619
rwrist 8.952073114099631
rhand -17.57273998623426 22.869454969329343
rfingers 7.125020000000001
rthumb 8.70433667686305 -6.855497602666956
47
root 0.7329167152732133 17.920628177232654 6.458418799870948 -2.1020608397458584 3.5606686209250094 -0.8014608969013015
lfemur 14.221157201835922 -4.174529657488072 -23.14257745886289
ltibia 25.48595578923433
lfoot -4.49921114062197 -7.015601067812356
ltoes -8.252203903350614
rfemur -26.183546314229226 1.9466298281284324 24.254691281638618
rtibia 28.60624344460687
rfoot -3.4729682507704567 -8.91852256019135
rtoes -3.578688545897208
lowerback 10.738255787167544 -1.3550459065073612 -2.8164260121255102
upperback -0.09896676020514097 -2.0456789634261234 2.2922476450278504
thorax -5.75171364452196 -0.9091818729017318 4.784983854068754
lowerneck -15.975288808191895 -2.9977745610457545 -2.7029037211862637
upperneck 21.70027152237055 -4.446807784802086 1.5449964251843735
head 9.597399404489684 -2.0797662820433866 0.4558257116515322
lclavicle 2.9486085953388543e-16 4.289024600286621e-17
lhumerus -31.131914626118878 0.37653213076309555 80.95031930995249
lradius 29.761517050108573
lwrist 7.899022017213699
lhand -29.375574300036284 20.527174485948457
lfingers 7.125020000000001
lthumb -2.744864681659743 50.57767902948189
rclavicle 2.9722999978612995e-16 5.396775463953056e-17
rhumerus -38.77534156811959 -26.708215652351633 -70.67730415624662
rradius 22.058755290815302
rwrist 10.499483642361799
rhand -17.637492186749167 22.805574683000795
rfingers 7.125020000000001
rthumb 8.68834672475716 -6.9267204171336125
